<svg viewBox="0 0 22 22" fill="none" xmlns="http://www.w3.org/2000/svg">
<path d="M11.0002 12.8334C10.7735 12.8334 10.552 12.9006 10.3636 13.0265C10.1751 13.1524 10.0283 13.3313 9.94156 13.5407C9.85483 13.7501 9.83214 13.9805 9.87635 14.2027C9.92056 14.425 10.0297 14.6292 10.1899 14.7894C10.3502 14.9497 10.5544 15.0588 10.7766 15.103C10.9989 15.1472 11.2293 15.1245 11.4387 15.0378C11.648 14.9511 11.827 14.8042 11.9529 14.6158C12.0788 14.4274 12.146 14.2058 12.146 13.9792C12.146 13.6753 12.0253 13.3839 11.8104 13.169C11.5955 12.9541 11.3041 12.8334 11.0002 12.8334ZM11.0002 11.4584C11.2433 11.4584 11.4764 11.3618 11.6483 11.1899C11.8203 11.018 11.9168 10.7848 11.9168 10.5417V7.79171C11.9168 7.54859 11.8203 7.31543 11.6483 7.14353C11.4764 6.97162 11.2433 6.87504 11.0002 6.87504C10.7571 6.87504 10.5239 6.97162 10.352 7.14353C10.1801 7.31543 10.0835 7.54859 10.0835 7.79171V10.5417C10.0835 10.7848 10.1801 11.018 10.352 11.1899C10.5239 11.3618 10.7571 11.4584 11.0002 11.4584ZM11.0002 1.83337C9.18717 1.83337 7.41489 2.37099 5.90744 3.37824C4.39999 4.38548 3.22507 5.81712 2.53127 7.49211C1.83747 9.1671 1.65594 11.0102 2.00964 12.7884C2.36333 14.5665 3.23637 16.1999 4.51835 17.4819C5.80034 18.7638 7.43368 19.6369 9.21184 19.9906C10.99 20.3443 12.8331 20.1627 14.5081 19.4689C16.1831 18.7751 17.6147 17.6002 18.622 16.0928C19.6292 14.5853 20.1668 12.813 20.1668 11C20.1641 8.56972 19.1975 6.23971 17.479 4.52121C15.7605 2.80272 13.4305 1.83608 11.0002 1.83337ZM11.0002 18.3334C9.54977 18.3334 8.13195 17.9033 6.92598 17.0975C5.72002 16.2917 4.78009 15.1464 4.22505 13.8064C3.67001 12.4664 3.52478 10.9919 3.80774 9.56938C4.0907 8.14685 4.78913 6.84018 5.81472 5.81459C6.8403 4.78901 8.14698 4.09057 9.5695 3.80762C10.992 3.52466 12.4665 3.66988 13.8065 4.22492C15.1465 4.77997 16.2918 5.7199 17.0976 6.92586C17.9034 8.13182 18.3335 9.54964 18.3335 11C18.3313 12.9443 17.5579 14.8082 16.1832 16.183C14.8084 17.5578 12.9444 18.3312 11.0002 18.3334Z" fill="#9F91EF"/>
</svg>
