<svg width="359" height="45" viewBox="0 0 359 45" fill="none" xmlns="http://www.w3.org/2000/svg">
<path d="M68.88 18H72.72L68.616 29.64C67.336 33.256 65.056 34.976 61.776 34.8V31.44C62.592 31.44 63.216 31.32 63.648 31.08C64.08 30.84 64.432 30.408 64.704 29.784L60 18H63.84L66.624 25.368L68.88 18ZM80.8866 18H84.4866V30H80.8866V26.4C80.0226 26.656 79.1426 26.784 78.2466 26.784C76.8226 26.784 75.6626 26.416 74.7666 25.68C73.8866 24.928 73.4466 23.848 73.4466 22.44V18H77.0466V21.96C77.0466 22.936 77.6866 23.424 78.9666 23.424C79.7026 23.424 80.3426 23.296 80.8866 23.04V18ZM95.7647 18H98.4047V30H94.9007V24L89.7647 30H87.1247V18H90.6287V24L95.7647 18ZM110.767 18V21.456H107.191V30H103.591V21.456H99.9666V18H110.767ZM117.936 21.6C119.376 21.6 120.52 21.984 121.368 22.752C122.216 23.52 122.64 24.536 122.64 25.8C122.64 27.064 122.216 28.08 121.368 28.848C120.52 29.616 119.376 30 117.936 30H112.32V18H115.92V21.6H117.936ZM117.96 26.88C118.312 26.88 118.592 26.784 118.8 26.592C119.024 26.384 119.136 26.12 119.136 25.8C119.136 25.48 119.024 25.224 118.8 25.032C118.592 24.824 118.312 24.72 117.96 24.72H115.92V26.88H117.96ZM127.851 29.664C127.403 30.112 126.867 30.336 126.243 30.336C125.619 30.336 125.083 30.112 124.635 29.664C124.187 29.216 123.963 28.68 123.963 28.056C123.963 27.432 124.187 26.896 124.635 26.448C125.083 26 125.619 25.776 126.243 25.776C126.867 25.776 127.403 26 127.851 26.448C128.299 26.896 128.523 27.432 128.523 28.056C128.523 28.68 128.299 29.216 127.851 29.664Z" fill="#B5A8FB"/>
<path d="M141.249 16.896H134.889V20.136H141.129V23.832H134.889V30H131.049V13.2H141.249V16.896ZM146.998 20.136C147.222 19.368 147.67 18.784 148.342 18.384C149.03 17.968 149.782 17.76 150.598 17.76V21.84C149.718 21.696 148.894 21.848 148.126 22.296C147.374 22.728 146.998 23.488 146.998 24.576V30H143.398V18H146.998V20.136ZM162.201 28.512C160.969 29.728 159.465 30.336 157.689 30.336C155.913 30.336 154.409 29.728 153.177 28.512C151.945 27.28 151.329 25.776 151.329 24C151.329 22.224 151.945 20.728 153.177 19.512C154.409 18.28 155.913 17.664 157.689 17.664C159.465 17.664 160.969 18.28 162.201 19.512C163.433 20.728 164.049 22.224 164.049 24C164.049 25.776 163.433 27.28 162.201 28.512ZM155.721 26.04C156.249 26.568 156.905 26.832 157.689 26.832C158.473 26.832 159.129 26.568 159.657 26.04C160.185 25.512 160.449 24.832 160.449 24C160.449 23.168 160.185 22.488 159.657 21.96C159.129 21.432 158.473 21.168 157.689 21.168C156.905 21.168 156.249 21.432 155.721 21.96C155.193 22.488 154.929 23.168 154.929 24C154.929 24.832 155.193 25.512 155.721 26.04ZM173.118 17.664C174.398 17.664 175.462 18.104 176.31 18.984C177.174 19.864 177.606 21.08 177.606 22.632V30H174.006V23.16C174.006 22.456 173.806 21.92 173.406 21.552C173.022 21.168 172.526 20.976 171.918 20.976C171.23 20.976 170.686 21.184 170.286 21.6C169.886 22.016 169.686 22.632 169.686 23.448V30H166.086V18H169.686V19.128C170.406 18.152 171.55 17.664 173.118 17.664ZM187.11 21.456H184.638V25.704C184.638 26.184 184.83 26.488 185.214 26.616C185.598 26.744 186.23 26.784 187.11 26.736V30C184.822 30.24 183.238 30.024 182.358 29.352C181.478 28.664 181.038 27.448 181.038 25.704V21.456H179.118V18H181.038V15.72L184.638 14.64V18H187.11V21.456ZM192.13 25.44C192.546 26.56 193.506 27.12 195.01 27.12C195.986 27.12 196.754 26.816 197.314 26.208L200.194 27.864C199.01 29.512 197.266 30.336 194.962 30.336C192.946 30.336 191.33 29.736 190.114 28.536C188.914 27.336 188.314 25.824 188.314 24C188.314 22.192 188.906 20.688 190.09 19.488C191.29 18.272 192.826 17.664 194.698 17.664C196.442 17.664 197.89 18.272 199.042 19.488C200.21 20.688 200.794 22.192 200.794 24C200.794 24.512 200.746 24.992 200.65 25.44H192.13ZM192.058 22.752H197.218C196.866 21.488 196.018 20.856 194.674 20.856C193.282 20.856 192.41 21.488 192.058 22.752ZM209.868 17.664C211.148 17.664 212.212 18.104 213.06 18.984C213.924 19.864 214.356 21.08 214.356 22.632V30H210.756V23.16C210.756 22.456 210.556 21.92 210.156 21.552C209.772 21.168 209.276 20.976 208.668 20.976C207.98 20.976 207.436 21.184 207.036 21.6C206.636 22.016 206.436 22.632 206.436 23.448V30H202.836V18H206.436V19.128C207.156 18.152 208.3 17.664 209.868 17.664ZM225.54 13.2H229.14V30H225.54V28.872C224.692 29.848 223.5 30.336 221.964 30.336C220.38 30.336 219.028 29.728 217.908 28.512C216.788 27.28 216.228 25.776 216.228 24C216.228 22.224 216.788 20.728 217.908 19.512C219.028 18.28 220.38 17.664 221.964 17.664C223.5 17.664 224.692 18.152 225.54 19.128V13.2ZM220.62 26.136C221.148 26.664 221.836 26.928 222.684 26.928C223.532 26.928 224.22 26.664 224.748 26.136C225.276 25.608 225.54 24.896 225.54 24C225.54 23.104 225.276 22.392 224.748 21.864C224.22 21.336 223.532 21.072 222.684 21.072C221.836 21.072 221.148 21.336 220.62 21.864C220.092 22.392 219.828 23.104 219.828 24C219.828 24.896 220.092 25.608 220.62 26.136ZM234.301 32.4C232.541 28.88 231.661 25.28 231.661 21.6C231.661 17.92 232.541 14.32 234.301 10.8H237.901C236.141 14.32 235.261 17.92 235.261 21.6C235.261 25.28 236.141 28.88 237.901 32.4H234.301ZM354.699 32.4H351.099C352.859 28.88 353.739 25.28 353.739 21.6C353.739 17.92 352.859 14.32 351.099 10.8H354.699C356.459 14.32 357.339 17.92 357.339 21.6C357.339 25.28 356.459 28.88 354.699 32.4Z" fill="#8273DC"/>
<path d="M246.308 32.568C242.788 32.792 241.028 31.24 241.028 27.912V24.504C241.028 23.96 240.884 23.608 240.596 23.448C240.324 23.288 239.908 23.24 239.348 23.304V19.824C239.908 19.888 240.324 19.84 240.596 19.68C240.884 19.52 241.028 19.168 241.028 18.624V15.216C241.028 11.888 242.788 10.336 246.308 10.56V14.016C245.748 13.952 245.324 14 245.036 14.16C244.764 14.32 244.628 14.672 244.628 15.216V18.624C244.628 19.984 244.204 20.96 243.356 21.552C244.204 22.16 244.628 23.144 244.628 24.504V27.912C244.628 28.456 244.764 28.808 245.036 28.968C245.324 29.128 245.748 29.176 246.308 29.112V32.568ZM257.765 29.664C257.317 30.112 256.781 30.336 256.157 30.336C255.533 30.336 254.997 30.112 254.549 29.664C254.101 29.216 253.877 28.68 253.877 28.056C253.877 27.432 254.101 26.896 254.549 26.448C254.997 26 255.533 25.776 256.157 25.776C256.781 25.776 257.317 26 257.765 26.448C258.213 26.896 258.437 27.432 258.437 28.056C258.437 28.68 258.213 29.216 257.765 29.664ZM264.491 29.664C264.043 30.112 263.507 30.336 262.883 30.336C262.259 30.336 261.723 30.112 261.275 29.664C260.827 29.216 260.603 28.68 260.603 28.056C260.603 27.432 260.827 26.896 261.275 26.448C261.723 26 262.259 25.776 262.883 25.776C263.507 25.776 264.043 26 264.491 26.448C264.939 26.896 265.163 27.432 265.163 28.056C265.163 28.68 264.939 29.216 264.491 29.664ZM271.218 29.664C270.77 30.112 270.234 30.336 269.61 30.336C268.986 30.336 268.45 30.112 268.002 29.664C267.554 29.216 267.33 28.68 267.33 28.056C267.33 27.432 267.554 26.896 268.002 26.448C268.45 26 268.986 25.776 269.61 25.776C270.234 25.776 270.77 26 271.218 26.448C271.666 26.896 271.89 27.432 271.89 28.056C271.89 28.68 271.666 29.216 271.218 29.664ZM284.737 18V30H281.137V21.456H278.545V25.032C278.545 26.856 278.089 28.192 277.177 29.04C276.281 29.888 274.961 30.208 273.217 30V26.64C273.777 26.8 274.201 26.72 274.489 26.4C274.793 26.08 274.945 25.544 274.945 24.792V18H284.737ZM290.591 25.44C291.007 26.56 291.967 27.12 293.471 27.12C294.447 27.12 295.215 26.816 295.775 26.208L298.655 27.864C297.471 29.512 295.727 30.336 293.423 30.336C291.407 30.336 289.791 29.736 288.575 28.536C287.375 27.336 286.775 25.824 286.775 24C286.775 22.192 287.367 20.688 288.551 19.488C289.751 18.272 291.287 17.664 293.159 17.664C294.903 17.664 296.351 18.272 297.503 19.488C298.671 20.688 299.255 22.192 299.255 24C299.255 24.512 299.207 24.992 299.111 25.44H290.591ZM290.519 22.752H295.679C295.327 21.488 294.479 20.856 293.135 20.856C291.743 20.856 290.871 21.488 290.519 22.752ZM309.697 18V21.456H304.897V30H301.297V18H309.697ZM322.778 30H318.698L314.858 24.696V30H311.258V18H314.858V23.256L318.458 18H322.658L318.29 24L322.778 30ZM333.647 28.512C332.415 29.728 330.911 30.336 329.135 30.336C327.359 30.336 325.855 29.728 324.623 28.512C323.391 27.28 322.775 25.776 322.775 24C322.775 22.224 323.391 20.728 324.623 19.512C325.855 18.28 327.359 17.664 329.135 17.664C330.911 17.664 332.415 18.28 333.647 19.512C334.879 20.728 335.495 22.224 335.495 24C335.495 25.776 334.879 27.28 333.647 28.512ZM327.167 26.04C327.695 26.568 328.351 26.832 329.135 26.832C329.919 26.832 330.575 26.568 331.103 26.04C331.631 25.512 331.895 24.832 331.895 24C331.895 23.168 331.631 22.488 331.103 21.96C330.575 21.432 329.919 21.168 329.135 21.168C328.351 21.168 327.695 21.432 327.167 21.96C326.639 22.488 326.375 23.168 326.375 24C326.375 24.832 326.639 25.512 327.167 26.04ZM342.691 32.568V29.112C343.251 29.176 343.667 29.128 343.939 28.968C344.227 28.808 344.371 28.456 344.371 27.912V24.504C344.371 23.144 344.795 22.16 345.643 21.552C344.795 20.96 344.371 19.984 344.371 18.624V15.216C344.371 14.672 344.227 14.32 343.939 14.16C343.667 14 343.251 13.952 342.691 14.016V10.56C346.211 10.336 347.971 11.888 347.971 15.216V18.624C347.971 19.168 348.107 19.52 348.379 19.68C348.667 19.84 349.091 19.888 349.651 19.824V23.304C349.091 23.24 348.667 23.288 348.379 23.448C348.107 23.608 347.971 23.96 347.971 24.504V27.912C347.971 31.24 346.211 32.792 342.691 32.568Z" fill="#C5C5C5"/>
<rect width="45" height="45" rx="8" fill="#8273DC"/>
<g clip-path="url(#clip0_52804_8225)">
<path d="M9.09082 16.628C9.09082 16.628 9.17211 13.9351 9.20803 13.357C9.35549 10.9539 10.8546 10.1928 13.5297 10.1747C16.2047 10.1566 19.67 10.1674 19.67 10.1674C19.67 10.1674 21.0255 10.2454 21.0255 9.18158V8H24.073L24.0692 9.22145C24.0692 9.22145 24.0843 10.1366 25.2923 10.1276C26.5004 10.1185 32.7484 10.2127 32.7484 10.2127C32.7484 10.2127 35.9377 10.191 35.9831 13.4005C36.002 14.7125 36.002 16.6987 36.002 16.6987H33.0112L33.0301 14.997C33.0301 14.997 33.0849 13.2428 31.3835 13.25C30.1074 13.2573 25.385 13.27 25.385 13.27C25.385 13.27 23.037 13.4711 22.5284 11.3436C22.5284 11.3436 22.3299 13.1902 19.9971 13.2664C18.0877 13.3298 13.8719 13.2935 13.8719 13.2935C13.8719 13.2935 12.3141 13.2827 12.1156 14.9771C11.97 16.213 11.9795 16.6498 11.9795 16.6498L9.0946 16.6262L9.09082 16.628Z" fill="#C2B8FF"/>
<path d="M9.01161 22.6489C9.01161 22.6489 8.98325 31.065 9.01917 31.6431C9.16663 34.0461 10.6658 34.8072 13.3408 34.8253C16.0159 34.8435 19.4811 34.8326 19.4811 34.8326C19.4811 34.8326 20.8366 34.7547 20.8366 35.8184V37H23.8841L23.8803 35.7786C23.8803 35.7786 23.8954 34.8634 25.1035 34.8725C26.3115 34.8815 32.5596 34.7873 32.5596 34.7873C32.5596 34.7873 35.8509 34.8036 35.8963 31.5923C35.9152 30.2803 36.0022 22.6834 36.0022 22.6834H33.1286L32.9471 29.9976C32.9471 29.9976 32.8961 31.759 31.1946 31.75C29.9186 31.7427 25.1961 31.73 25.1961 31.73C25.1961 31.73 22.8481 31.5289 22.3396 33.6565C22.3396 33.6565 22.1411 31.8098 19.8082 31.7337C17.8988 31.6702 13.683 31.7065 13.683 31.7065C13.683 31.7065 12.25 31.7192 12.0496 30.0247C11.9041 28.7888 11.991 22.6417 11.991 22.6417L9.01539 22.6508L9.01161 22.6489Z" fill="#C2B8FF"/>
<path d="M14.626 23.9698C14.626 23.9698 21.9119 26.6646 30.2717 23.9698V25.7241C30.2717 25.7241 22.7627 29.6784 14.626 25.7241V23.9698Z" fill="white"/>
<path d="M26.1959 21.1842C27.2682 21.1842 28.1375 20.3509 28.1375 19.323C28.1375 18.2952 27.2682 17.4619 26.1959 17.4619C25.1236 17.4619 24.2544 18.2952 24.2544 19.323C24.2544 20.3509 25.1236 21.1842 26.1959 21.1842Z" fill="white"/>
<path d="M18.7003 21.1135C19.7726 21.1135 20.6419 20.2802 20.6419 19.2523C20.6419 18.2244 19.7726 17.3912 18.7003 17.3912C17.628 17.3912 16.7588 18.2244 16.7588 19.2523C16.7588 20.2802 17.628 21.1135 18.7003 21.1135Z" fill="white"/>
</g>
<defs>
<clipPath id="clip0_52804_8225">
<rect width="27" height="29" fill="white" transform="translate(9 8)"/>
</clipPath>
</defs>
</svg>
