<svg  viewBox="0 0 22 22" fill="none" xmlns="http://www.w3.org/2000/svg">
<path d="M8.24984 9.16671H9.1665C9.40962 9.16671 9.64278 9.07013 9.81468 8.89822C9.98659 8.72631 10.0832 8.49316 10.0832 8.25004C10.0832 8.00693 9.98659 7.77377 9.81468 7.60186C9.64278 7.42995 9.40962 7.33337 9.1665 7.33337H8.24984C8.00672 7.33337 7.77356 7.42995 7.60166 7.60186C7.42975 7.77377 7.33317 8.00693 7.33317 8.25004C7.33317 8.49316 7.42975 8.72631 7.60166 8.89822C7.77356 9.07013 8.00672 9.16671 8.24984 9.16671ZM8.24984 11C8.00672 11 7.77356 11.0966 7.60166 11.2685C7.42975 11.4404 7.33317 11.6736 7.33317 11.9167C7.33317 12.1598 7.42975 12.393 7.60166 12.5649C7.77356 12.7368 8.00672 12.8334 8.24984 12.8334H13.7498C13.993 12.8334 14.2261 12.7368 14.398 12.5649C14.5699 12.393 14.6665 12.1598 14.6665 11.9167C14.6665 11.6736 14.5699 11.4404 14.398 11.2685C14.2261 11.0966 13.993 11 13.7498 11H8.24984ZM18.3332 8.19504C18.3236 8.11083 18.3052 8.02787 18.2782 7.94754V7.86504C18.2341 7.77079 18.1753 7.68415 18.104 7.60837L12.604 2.10837C12.5282 2.03707 12.4416 1.97828 12.3473 1.93421C12.32 1.93032 12.2922 1.93032 12.2648 1.93421C12.1717 1.8808 12.0689 1.84652 11.9623 1.83337H6.4165C5.68716 1.83337 4.98769 2.12311 4.47196 2.63883C3.95624 3.15456 3.6665 3.85403 3.6665 4.58337V17.4167C3.6665 18.1461 3.95624 18.8455 4.47196 19.3613C4.98769 19.877 5.68716 20.1667 6.4165 20.1667H15.5832C16.3125 20.1667 17.012 19.877 17.5277 19.3613C18.0434 18.8455 18.3332 18.1461 18.3332 17.4167V8.25004C18.3332 8.25004 18.3332 8.25004 18.3332 8.19504ZM12.8332 4.95921L15.2073 7.33337H13.7498C13.5067 7.33337 13.2736 7.2368 13.1017 7.06489C12.9297 6.89298 12.8332 6.65982 12.8332 6.41671V4.95921ZM16.4998 17.4167C16.4998 17.6598 16.4033 17.893 16.2314 18.0649C16.0594 18.2368 15.8263 18.3334 15.5832 18.3334H6.4165C6.17339 18.3334 5.94023 18.2368 5.76832 18.0649C5.59641 17.893 5.49984 17.6598 5.49984 17.4167V4.58337C5.49984 4.34026 5.59641 4.1071 5.76832 3.93519C5.94023 3.76328 6.17339 3.66671 6.4165 3.66671H10.9998V6.41671C10.9998 7.14605 11.2896 7.84553 11.8053 8.36125C12.321 8.87698 13.0205 9.16671 13.7498 9.16671H16.4998V17.4167ZM13.7498 14.6667H8.24984C8.00672 14.6667 7.77356 14.7633 7.60166 14.9352C7.42975 15.1071 7.33317 15.3403 7.33317 15.5834C7.33317 15.8265 7.42975 16.0596 7.60166 16.2316C7.77356 16.4035 8.00672 16.5 8.24984 16.5H13.7498C13.993 16.5 14.2261 16.4035 14.398 16.2316C14.5699 16.0596 14.6665 15.8265 14.6665 15.5834C14.6665 15.3403 14.5699 15.1071 14.398 14.9352C14.2261 14.7633 13.993 14.6667 13.7498 14.6667Z" fill="#9F91EF"/>
</svg>
