<svg width="23" height="22" viewBox="0 0 23 22" fill="none" xmlns="http://www.w3.org/2000/svg">
<path d="M21.9663 8.66734C21.9031 8.48442 21.7883 8.32376 21.6356 8.20484C21.483 8.08591 21.2991 8.01383 21.1063 7.99734L15.4163 7.16734L12.8663 1.99734C12.7844 1.82827 12.6565 1.68568 12.4974 1.58591C12.3382 1.48614 12.1541 1.43323 11.9663 1.43323C11.7784 1.43323 11.5944 1.48614 11.4352 1.58591C11.276 1.68568 11.1482 1.82827 11.0663 1.99734L8.51629 7.15734L2.82629 7.99734C2.64121 8.02364 2.46721 8.1013 2.32404 8.2215C2.18086 8.34169 2.07425 8.49961 2.01629 8.67734C1.96323 8.85101 1.95847 9.03586 2.00251 9.21203C2.04656 9.38821 2.13774 9.54906 2.26629 9.67734L6.39629 13.6773L5.39629 19.3573C5.35591 19.5458 5.37084 19.7418 5.43927 19.922C5.5077 20.1021 5.62672 20.2586 5.78202 20.3727C5.93731 20.4868 6.12226 20.5536 6.31461 20.5651C6.50697 20.5765 6.69854 20.5322 6.86629 20.4373L11.9663 17.7673L17.0663 20.4373C17.2066 20.5165 17.3651 20.5579 17.5263 20.5573C17.7381 20.5581 17.9447 20.4916 18.1163 20.3673C18.2714 20.2562 18.3915 20.103 18.4624 19.9258C18.5333 19.7486 18.552 19.5548 18.5163 19.3673L17.5163 13.6873L21.6463 9.68734C21.7907 9.56502 21.8974 9.40424 21.954 9.22369C22.0107 9.04313 22.0149 8.85021 21.9663 8.66734Z" fill="#9F91EF"/>
</svg>
