<svg viewBox="0 0 22 22" fill="none" xmlns="http://www.w3.org/2000/svg">
<path d="M13.163 13.0442C12.5502 13.5383 11.7868 13.8077 10.9997 13.8077C10.2125 13.8077 9.44912 13.5383 8.83635 13.0442C8.64915 12.8886 8.40781 12.8138 8.16541 12.8361C7.92302 12.8585 7.69944 12.9762 7.54385 13.1634C7.38825 13.3506 7.31339 13.5919 7.33574 13.8343C7.35809 14.0767 7.47581 14.3003 7.66301 14.4559C8.59924 15.2374 9.78011 15.6655 10.9997 15.6655C12.2192 15.6655 13.4001 15.2374 14.3363 14.4559C14.5235 14.3003 14.6413 14.0767 14.6636 13.8343C14.686 13.5919 14.6111 13.3506 14.4555 13.1634C14.3785 13.0707 14.2839 12.9941 14.1773 12.9379C14.0706 12.8818 13.954 12.8472 13.8339 12.8361C13.5916 12.8138 13.3502 12.8886 13.163 13.0442ZM8.24968 10.0834C8.43098 10.0834 8.60821 10.0296 8.75895 9.92889C8.9097 9.82816 9.02719 9.685 9.09657 9.5175C9.16595 9.35 9.1841 9.16569 9.14873 8.98787C9.11336 8.81006 9.02606 8.64672 8.89786 8.51853C8.76966 8.39033 8.60633 8.30302 8.42851 8.26765C8.25069 8.23228 8.06638 8.25044 7.89888 8.31982C7.73139 8.3892 7.58822 8.50669 7.4875 8.65743C7.38677 8.80818 7.33301 8.98541 7.33301 9.16671C7.33301 9.40982 7.42959 9.64298 7.6015 9.81489C7.77341 9.9868 8.00656 10.0834 8.24968 10.0834ZM13.7497 8.25004C13.5684 8.25004 13.3912 8.3038 13.2404 8.40453C13.0897 8.50525 12.9722 8.64841 12.9028 8.81591C12.8334 8.98341 12.8153 9.16772 12.8506 9.34554C12.886 9.52336 12.9733 9.68669 13.1015 9.81489C13.2297 9.94309 13.393 10.0304 13.5708 10.0658C13.7487 10.1011 13.933 10.083 14.1005 10.0136C14.268 9.94422 14.4111 9.82673 14.5119 9.67598C14.6126 9.52524 14.6663 9.34801 14.6663 9.16671C14.6663 8.92359 14.5698 8.69043 14.3979 8.51853C14.226 8.34662 13.9928 8.25004 13.7497 8.25004ZM10.9997 1.83337C9.18668 1.83337 7.4144 2.37099 5.90695 3.37824C4.3995 4.38548 3.22459 5.81712 2.53078 7.49211C1.83698 9.1671 1.65545 11.0102 2.00915 12.7884C2.36284 14.5665 3.23589 16.1999 4.51787 17.4819C5.79985 18.7638 7.43319 19.6369 9.21135 19.9906C10.9895 20.3443 12.8326 20.1627 14.5076 19.4689C16.1826 18.7751 17.6142 17.6002 18.6215 16.0928C19.6287 14.5853 20.1663 12.813 20.1663 11C20.1663 9.79626 19.9292 8.60426 19.4686 7.49211C19.0079 6.37996 18.3327 5.36943 17.4815 4.51823C16.6303 3.66702 15.6198 2.99181 14.5076 2.53114C13.3955 2.07048 12.2035 1.83337 10.9997 1.83337ZM10.9997 18.3334C9.54928 18.3334 8.13146 17.9033 6.9255 17.0975C5.71954 16.2917 4.7796 15.1464 4.22456 13.8064C3.66952 12.4664 3.5243 10.9919 3.80725 9.56938C4.09021 8.14685 4.78864 6.84018 5.81423 5.81459C6.83981 4.78901 8.14649 4.09057 9.56902 3.80762C10.9915 3.52466 12.466 3.66988 13.806 4.22492C15.146 4.77997 16.2913 5.7199 17.0971 6.92586C17.9029 8.13182 18.333 9.54964 18.333 11C18.333 12.945 17.5604 14.8102 16.1851 16.1855C14.8099 17.5608 12.9446 18.3334 10.9997 18.3334Z" fill="#292F51"/>
</svg>
