<svg viewBox="0 0 22 22" fill="none" xmlns="http://www.w3.org/2000/svg">
<path d="M11.5405 11.9167L9.43217 14.0158C9.34626 14.1011 9.27806 14.2024 9.23152 14.3141C9.18499 14.4259 9.16103 14.5457 9.16103 14.6667C9.16103 14.7877 9.18499 14.9075 9.23152 15.0192C9.27806 15.1309 9.34626 15.2323 9.43217 15.3175C9.51739 15.4034 9.61877 15.4716 9.73048 15.5182C9.84218 15.5647 9.962 15.5887 10.083 15.5887C10.204 15.5887 10.3238 15.5647 10.4355 15.5182C10.5472 15.4716 10.6486 15.4034 10.7338 15.3175L14.4005 11.6508C14.484 11.5637 14.5494 11.4609 14.593 11.3483C14.6847 11.1252 14.6847 10.8748 14.593 10.6517C14.5494 10.5392 14.484 10.4364 14.4005 10.3492L10.7338 6.68251C10.6484 6.59704 10.5469 6.52924 10.4352 6.48299C10.3236 6.43673 10.2039 6.41293 10.083 6.41293C9.96214 6.41293 9.84245 6.43673 9.73078 6.48299C9.61911 6.52924 9.51764 6.59704 9.43217 6.68251C9.34671 6.76798 9.27891 6.86944 9.23265 6.98111C9.1864 7.09278 9.16259 7.21247 9.16259 7.33334C9.16259 7.45421 9.1864 7.5739 9.23265 7.68557C9.27891 7.79724 9.34671 7.89871 9.43217 7.98418L11.5405 10.0833H2.74967C2.50656 10.0833 2.2734 10.1799 2.10149 10.3518C1.92958 10.5237 1.83301 10.7569 1.83301 11C1.83301 11.2431 1.92958 11.4763 2.10149 11.6482C2.2734 11.8201 2.50656 11.9167 2.74967 11.9167H11.5405ZM10.9997 1.83334C9.28651 1.82569 7.60548 2.29829 6.14727 3.19752C4.68906 4.09675 3.51202 5.38663 2.74967 6.92084C2.64027 7.13965 2.62227 7.39295 2.69963 7.62502C2.77699 7.8571 2.94337 8.04894 3.16217 8.15834C3.38098 8.26774 3.63428 8.28575 3.86636 8.20839C4.09843 8.13103 4.29027 7.96465 4.39967 7.74584C4.97918 6.57555 5.86069 5.58124 6.95309 4.86567C8.0455 4.15009 9.30918 3.7392 10.6135 3.67547C11.9179 3.61174 13.2156 3.89747 14.3726 4.50314C15.5295 5.10882 16.5038 6.01245 17.1946 7.12067C17.8854 8.22889 18.2678 9.50149 18.3022 10.8069C18.3366 12.1124 18.0218 13.4034 17.3902 14.5464C16.7587 15.6895 15.8334 16.6432 14.7099 17.3089C13.5864 17.9746 12.3056 18.3283 10.9997 18.3333C9.63282 18.3393 8.29198 17.9597 7.13106 17.2382C5.97014 16.5166 5.03617 15.4824 4.43634 14.2542C4.32694 14.0354 4.1351 13.869 3.90302 13.7916C3.67095 13.7143 3.41764 13.7323 3.19884 13.8417C2.98004 13.9511 2.81366 14.1429 2.7363 14.375C2.65894 14.6071 2.67694 14.8604 2.78634 15.0792C3.5131 16.5417 4.6174 17.7836 5.98502 18.6762C7.35264 19.5689 8.93392 20.08 10.5653 20.1566C12.1967 20.2332 13.8189 19.8726 15.2641 19.1121C16.7094 18.3515 17.9253 17.2187 18.7859 15.8307C19.6466 14.4427 20.1208 12.85 20.1595 11.2173C20.1982 9.58456 19.8 7.97115 19.0061 6.54394C18.2122 5.11673 17.0514 3.92753 15.6438 3.09936C14.2361 2.27118 12.6328 1.83411 10.9997 1.83334Z" fill="#7B95B4"/>
</svg>
