<svg viewBox="0 0 22 22" fill="none" xmlns="http://www.w3.org/2000/svg">
<path d="M16.5003 12.0817V9.16671C16.499 7.8679 16.0381 6.61147 15.1992 5.61992C14.3603 4.62836 13.1976 3.96567 11.917 3.74921V2.75004C11.917 2.50693 11.8204 2.27377 11.6485 2.10186C11.4766 1.92995 11.2434 1.83337 11.0003 1.83337C10.7572 1.83337 10.5241 1.92995 10.3521 2.10186C10.1802 2.27377 10.0837 2.50693 10.0837 2.75004V3.74921C8.80302 3.96567 7.64031 4.62836 6.80143 5.61992C5.96255 6.61147 5.50164 7.8679 5.50033 9.16671V12.0817C4.96541 12.2708 4.50207 12.6208 4.17385 13.0836C3.84563 13.5464 3.66859 14.0993 3.66699 14.6667V16.5C3.66699 16.7432 3.76357 16.9763 3.93548 17.1482C4.10739 17.3201 4.34054 17.4167 4.58366 17.4167H7.46199C7.67308 18.1935 8.13391 18.8792 8.77337 19.368C9.41283 19.8569 10.1954 20.1218 11.0003 20.1218C11.8053 20.1218 12.5878 19.8569 13.2273 19.368C13.8667 18.8792 14.3276 18.1935 14.5387 17.4167H17.417C17.6601 17.4167 17.8933 17.3201 18.0652 17.1482C18.2371 16.9763 18.3337 16.7432 18.3337 16.5V14.6667C18.3321 14.0993 18.155 13.5464 17.8268 13.0836C17.4986 12.6208 17.0352 12.2708 16.5003 12.0817ZM7.33366 9.16671C7.33366 8.19425 7.71997 7.26162 8.4076 6.57398C9.09523 5.88635 10.0279 5.50004 11.0003 5.50004C11.9728 5.50004 12.9054 5.88635 13.5931 6.57398C14.2807 7.26162 14.667 8.19425 14.667 9.16671V11.9167H7.33366V9.16671ZM11.0003 18.3334C10.6804 18.3314 10.3665 18.2458 10.0899 18.085C9.81332 17.9242 9.58363 17.6938 9.42366 17.4167H12.577C12.417 17.6938 12.1873 17.9242 11.9107 18.085C11.6341 18.2458 11.3203 18.3314 11.0003 18.3334ZM16.5003 15.5834H5.50033V14.6667C5.50033 14.4236 5.5969 14.1904 5.76881 14.0185C5.94072 13.8466 6.17388 13.75 6.41699 13.75H15.5837C15.8268 13.75 16.0599 13.8466 16.2318 14.0185C16.4037 14.1904 16.5003 14.4236 16.5003 14.6667V15.5834Z" fill="#9F91EF"/>
</svg>
