<svg viewBox="0 0 12 8" fill="none" xmlns="http://www.w3.org/2000/svg">
<path d="M0.305915 0.782323C-0.0940342 1.16633 -0.102982 1.79776 0.285929 2.19267L5.21523 7.19794C5.42843 7.41443 5.71694 7.51489 6 7.49822C6.28306 7.51489 6.57157 7.41443 6.78477 7.19794L11.7141 2.19267C12.103 1.79776 12.094 1.16633 11.6941 0.782323C11.2941 0.398317 10.6546 0.407152 10.2657 0.802057L6 5.13353L1.73427 0.802057C1.34536 0.407152 0.705863 0.398317 0.305915 0.782323Z" fill="#555555"/>
<path d="M0.305915 0.782323C-0.0940342 1.16633 -0.102982 1.79776 0.285929 2.19267L5.21523 7.19794C5.42843 7.41443 5.71694 7.51489 6 7.49822C6.28306 7.51489 6.57157 7.41443 6.78477 7.19794L11.7141 2.19267C12.103 1.79776 12.094 1.16633 11.6941 0.782323C11.2941 0.398317 10.6546 0.407152 10.2657 0.802057L6 5.13353L1.73427 0.802057C1.34536 0.407152 0.705863 0.398317 0.305915 0.782323Z" fill="#ADBCC0"/>
</svg>
