<svg  viewBox="0 0 20 20" fill="none" xmlns="http://www.w3.org/2000/svg">
<path d="M10 2.5C9.6374 2.5 9.28295 2.60752 8.98146 2.80897C8.67997 3.01042 8.44498 3.29675 8.30622 3.63175C8.16746 3.96675 8.13115 4.33537 8.20189 4.691C8.27263 5.04663 8.44724 5.3733 8.70364 5.6297C8.96004 5.88609 9.2867 6.0607 9.64234 6.13144C9.99797 6.20218 10.3666 6.16587 10.7016 6.02711C11.0366 5.88835 11.3229 5.65337 11.5244 5.35188C11.7258 5.05039 11.8333 4.69593 11.8333 4.33333C11.8333 3.8471 11.6402 3.38079 11.2964 3.03697C10.9525 2.69315 10.4862 2.5 10 2.5ZM3.58333 2.5C3.22074 2.5 2.86628 2.60752 2.56479 2.80897C2.2633 3.01042 2.02832 3.29675 1.88956 3.63175C1.75079 3.96675 1.71449 4.33537 1.78523 4.691C1.85597 5.04663 2.03058 5.3733 2.28697 5.6297C2.54337 5.88609 2.87004 6.0607 3.22567 6.13144C3.5813 6.20218 3.94992 6.16587 4.28492 6.02711C4.61992 5.88835 4.90625 5.65337 5.1077 5.35188C5.30914 5.05039 5.41667 4.69593 5.41667 4.33333C5.41667 3.8471 5.22351 3.38079 4.8797 3.03697C4.53588 2.69315 4.06956 2.5 3.58333 2.5ZM16.4167 2.5C16.0541 2.5 15.6996 2.60752 15.3981 2.80897C15.0966 3.01042 14.8616 3.29675 14.7229 3.63175C14.5841 3.96675 14.5478 4.33537 14.6186 4.691C14.6893 5.04663 14.8639 5.3733 15.1203 5.6297C15.3767 5.88609 15.7034 6.0607 16.059 6.13144C16.4146 6.20218 16.7833 6.16587 17.1183 6.02711C17.4533 5.88835 17.7396 5.65337 17.941 5.35188C18.1425 5.05039 18.25 4.69593 18.25 4.33333C18.25 3.8471 18.0568 3.38079 17.713 3.03697C17.3692 2.69315 16.9029 2.5 16.4167 2.5Z" fill="#9F91EF"/>
<path d="M10 8.16663C9.6374 8.16663 9.28295 8.27415 8.98146 8.4756C8.67997 8.67705 8.44498 8.96338 8.30622 9.29837C8.16746 9.63337 8.13116 10.002 8.20189 10.3576C8.27263 10.7133 8.44724 11.0399 8.70364 11.2963C8.96004 11.5527 9.2867 11.7273 9.64234 11.7981C9.99797 11.8688 10.3666 11.8325 10.7016 11.6937C11.0366 11.555 11.3229 11.32 11.5244 11.0185C11.7258 10.717 11.8333 10.3626 11.8333 9.99996C11.8333 9.51373 11.6402 9.04741 11.2964 8.7036C10.9525 8.35978 10.4862 8.16663 10 8.16663ZM3.58333 8.16663C3.22074 8.16663 2.86628 8.27415 2.56479 8.4756C2.2633 8.67705 2.02832 8.96338 1.88956 9.29837C1.75079 9.63337 1.71449 10.002 1.78523 10.3576C1.85597 10.7133 2.03058 11.0399 2.28697 11.2963C2.54337 11.5527 2.87004 11.7273 3.22567 11.7981C3.5813 11.8688 3.94992 11.8325 4.28492 11.6937C4.61992 11.555 4.90625 11.32 5.1077 11.0185C5.30914 10.717 5.41667 10.3626 5.41667 9.99996C5.41667 9.51373 5.22351 9.04741 4.8797 8.7036C4.53588 8.35978 4.06956 8.16663 3.58333 8.16663ZM16.4167 8.16663C16.0541 8.16663 15.6996 8.27415 15.3981 8.4756C15.0966 8.67705 14.8616 8.96338 14.7229 9.29837C14.5841 9.63337 14.5478 10.002 14.6186 10.3576C14.6893 10.7133 14.8639 11.0399 15.1203 11.2963C15.3767 11.5527 15.7034 11.7273 16.059 11.7981C16.4146 11.8688 16.7833 11.8325 17.1183 11.6937C17.4533 11.555 17.7396 11.32 17.941 11.0185C18.1425 10.717 18.25 10.3626 18.25 9.99996C18.25 9.51373 18.0568 9.04741 17.713 8.7036C17.3692 8.35978 16.9029 8.16663 16.4167 8.16663Z" fill="#9F91EF"/>
<path d="M10 13.8334C9.6374 13.8334 9.28295 13.9409 8.98146 14.1423C8.67997 14.3438 8.44498 14.6301 8.30622 14.9651C8.16746 15.3001 8.13116 15.6687 8.20189 16.0244C8.27263 16.38 8.44724 16.7067 8.70364 16.9631C8.96004 17.2195 9.2867 17.3941 9.64234 17.4648C9.99797 17.5356 10.3666 17.4992 10.7016 17.3605C11.0366 17.2217 11.3229 16.9867 11.5244 16.6853C11.7258 16.3838 11.8333 16.0293 11.8333 15.6667C11.8333 15.1805 11.6402 14.7142 11.2964 14.3703C10.9525 14.0265 10.4862 13.8334 10 13.8334ZM3.58333 13.8334C3.22074 13.8334 2.86628 13.9409 2.56479 14.1423C2.2633 14.3438 2.02832 14.6301 1.88956 14.9651C1.75079 15.3001 1.71449 15.6687 1.78523 16.0244C1.85597 16.38 2.03058 16.7067 2.28697 16.9631C2.54337 17.2195 2.87004 17.3941 3.22567 17.4648C3.5813 17.5356 3.94992 17.4992 4.28492 17.3605C4.61992 17.2217 4.90625 16.9867 5.1077 16.6853C5.30914 16.3838 5.41667 16.0293 5.41667 15.6667C5.41667 15.1805 5.22351 14.7142 4.8797 14.3703C4.53588 14.0265 4.06956 13.8334 3.58333 13.8334ZM16.4167 13.8334C16.0541 13.8334 15.6996 13.9409 15.3981 14.1423C15.0966 14.3438 14.8616 14.6301 14.7229 14.9651C14.5841 15.3001 14.5478 15.6687 14.6186 16.0244C14.6893 16.38 14.8639 16.7067 15.1203 16.9631C15.3767 17.2195 15.7034 17.3941 16.059 17.4648C16.4146 17.5356 16.7833 17.4992 17.1183 17.3605C17.4533 17.2217 17.7396 16.9867 17.941 16.6853C18.1425 16.3838 18.25 16.0293 18.25 15.6667C18.25 15.1805 18.0568 14.7142 17.713 14.3703C17.3692 14.0265 16.9029 13.8334 16.4167 13.8334Z" fill="#9F91EF"/>
</svg>
