<svg viewBox="0 0 22 22" fill="none" xmlns="http://www.w3.org/2000/svg">
<path d="M11.1989 18.7102C8.91271 18.7102 6.35968 17.8473 4.19805 16.3351C2.58794 15.2142 0.871094 13.4351 0.871094 11.8428C0.879989 9.92136 5.33668 5.13553 11.19 5.01099C15.9847 4.89535 21.0285 9.93915 21.1264 11.7894C21.1886 12.8925 20.1034 14.2001 19.454 14.894C18.6089 15.7924 15.5043 18.7102 11.2078 18.7102H11.1989ZM2.65911 11.8606C2.6769 12.4655 3.57536 13.7198 5.22104 14.8762C7.08912 16.1839 9.26854 16.9311 11.1989 16.9311C15.8424 16.9311 19.3117 12.7146 19.3472 11.8784C19.1515 10.9177 15.1129 6.79011 11.3323 6.79011C11.2967 6.79011 11.2611 6.79011 11.2256 6.79011C6.15508 6.89686 2.81033 11.0333 2.65911 11.8606Z" fill="#5ED3F3"/>
<path d="M11.0027 15.8194C8.85888 15.8194 7.10645 14.0759 7.10645 11.9231C7.10645 9.77039 8.84998 8.02686 11.0027 8.02686C13.1554 8.02686 14.899 9.77039 14.899 11.9231C14.899 14.0759 13.1554 15.8194 11.0027 15.8194ZM11.0027 9.81487C9.83739 9.81487 8.88556 10.7667 8.88556 11.932C8.88556 13.0973 9.83739 14.0492 11.0027 14.0492C12.168 14.0492 13.1199 13.0973 13.1199 11.932C13.1199 10.7667 12.168 9.81487 11.0027 9.81487Z" fill="#5ED3F3"/>
</svg>
