<svg width="322" height="304" viewBox="0 0 322 304" fill="none" xmlns="http://www.w3.org/2000/svg">
<g filter="url(#filter0_dddd_53289_10158)">
<rect x="23" y="4" width="276" height="219" rx="16" fill="#090F11"/>
<rect x="23" y="4" width="276" height="219" rx="16" fill="white"/>
<path d="M55.8 29.944C57.224 31.112 57.936 32.664 57.936 34.6C57.936 36.536 57.224 38.096 55.8 39.28C54.392 40.448 52.504 41.128 50.136 41.32V43.24H47.424V41.32C45.04 41.128 43.136 40.448 41.712 39.28C40.304 38.096 39.6 36.536 39.6 34.6C39.6 32.664 40.304 31.112 41.712 29.944C43.136 28.76 45.04 28.072 47.424 27.88V25.96H50.136V27.88C52.504 28.072 54.392 28.76 55.8 29.944ZM42.36 34.6C42.36 35.848 42.792 36.824 43.656 37.528C44.536 38.232 45.792 38.656 47.424 38.8V30.4C44.048 30.704 42.36 32.104 42.36 34.6ZM50.136 38.8C53.496 38.464 55.176 37.064 55.176 34.6C55.176 32.104 53.496 30.704 50.136 30.4V38.8ZM65.7229 43.312C63.9629 43.312 62.4669 42.704 61.2349 41.488C60.0029 40.272 59.3869 38.776 59.3869 37C59.3869 35.224 60.0029 33.728 61.2349 32.512C62.4669 31.296 63.9629 30.688 65.7229 30.688C67.4989 30.688 68.9949 31.296 70.2109 32.512C71.4429 33.728 72.0589 35.224 72.0589 37C72.0589 38.776 71.4429 40.272 70.2109 41.488C68.9949 42.704 67.4989 43.312 65.7229 43.312ZM63.0589 39.712C63.7789 40.432 64.6669 40.792 65.7229 40.792C66.7789 40.792 67.6669 40.432 68.3869 39.712C69.1069 38.992 69.4669 38.088 69.4669 37C69.4669 35.912 69.1069 35.008 68.3869 34.288C67.6669 33.568 66.7789 33.208 65.7229 33.208C64.6669 33.208 63.7789 33.568 63.0589 34.288C62.3389 35.008 61.9789 35.912 61.9789 37C61.9789 38.088 62.3389 38.992 63.0589 39.712ZM81.1946 30.688C82.8426 30.688 84.2506 31.304 85.4186 32.536C86.5866 33.752 87.1706 35.24 87.1706 37C87.1706 38.776 86.5866 40.272 85.4186 41.488C84.2506 42.704 82.8426 43.312 81.1946 43.312C79.3706 43.312 77.9706 42.64 76.9946 41.296V47.8H74.4026V31H76.9946V32.728C77.9706 31.368 79.3706 30.688 81.1946 30.688ZM78.0746 39.76C78.7946 40.48 79.6986 40.84 80.7866 40.84C81.8746 40.84 82.7786 40.48 83.4986 39.76C84.2186 39.024 84.5786 38.104 84.5786 37C84.5786 35.896 84.2186 34.984 83.4986 34.264C82.7786 33.528 81.8746 33.16 80.7866 33.16C79.6986 33.16 78.7946 33.528 78.0746 34.264C77.3546 34.984 76.9946 35.896 76.9946 37C76.9946 38.104 77.3546 39.024 78.0746 39.76ZM101.76 31V43H99.2398V35.104L95.7838 40.6H95.4718L92.0398 35.128V43H89.5198V31H92.1598L95.6398 36.544L99.1198 31H101.76ZM114.258 31H116.85V43H114.258V41.272C113.282 42.632 111.882 43.312 110.058 43.312C108.41 43.312 107.002 42.704 105.834 41.488C104.666 40.256 104.082 38.76 104.082 37C104.082 35.224 104.666 33.728 105.834 32.512C107.002 31.296 108.41 30.688 110.058 30.688C111.882 30.688 113.282 31.36 114.258 32.704V31ZM107.754 39.76C108.474 40.48 109.378 40.84 110.466 40.84C111.554 40.84 112.458 40.48 113.178 39.76C113.898 39.024 114.258 38.104 114.258 37C114.258 35.896 113.898 34.984 113.178 34.264C112.458 33.528 111.554 33.16 110.466 33.16C109.378 33.16 108.474 33.528 107.754 34.264C107.034 34.984 106.674 35.896 106.674 37C106.674 38.104 107.034 39.024 107.754 39.76ZM135.375 31H137.967V43H135.375V41.272C134.399 42.632 132.999 43.312 131.175 43.312C129.527 43.312 128.119 42.704 126.951 41.488C125.783 40.256 125.199 38.76 125.199 37C125.199 35.224 125.783 33.728 126.951 32.512C128.119 31.296 129.527 30.688 131.175 30.688C132.999 30.688 134.399 31.36 135.375 32.704V31ZM128.871 39.76C129.591 40.48 130.495 40.84 131.583 40.84C132.671 40.84 133.575 40.48 134.295 39.76C135.015 39.024 135.375 38.104 135.375 37C135.375 35.896 135.015 34.984 134.295 34.264C133.575 33.528 132.671 33.16 131.583 33.16C130.495 33.16 129.591 33.528 128.871 34.264C128.151 34.984 127.791 35.896 127.791 37C127.791 38.104 128.151 39.024 128.871 39.76ZM149.293 36.832C150.477 37.376 151.069 38.296 151.069 39.592C151.069 40.6 150.725 41.424 150.037 42.064C149.365 42.688 148.397 43 147.133 43H140.989V31H146.653C147.885 31 148.837 31.312 149.509 31.936C150.197 32.544 150.541 33.336 150.541 34.312C150.541 35.448 150.125 36.288 149.293 36.832ZM146.461 33.208H143.461V35.872H146.461C147.517 35.872 148.045 35.424 148.045 34.528C148.045 33.648 147.517 33.208 146.461 33.208ZM146.893 40.744C147.981 40.744 148.525 40.272 148.525 39.328C148.525 38.912 148.381 38.592 148.093 38.368C147.805 38.128 147.405 38.008 146.893 38.008H143.461V40.744H146.893ZM161.993 31V33.496H158.081V43H155.489V33.496H151.553V31H161.993ZM168.942 43.312C167.182 43.312 165.686 42.704 164.454 41.488C163.222 40.272 162.606 38.776 162.606 37C162.606 35.224 163.222 33.728 164.454 32.512C165.686 31.296 167.182 30.688 168.942 30.688C170.718 30.688 172.214 31.296 173.43 32.512C174.662 33.728 175.278 35.224 175.278 37C175.278 38.776 174.662 40.272 173.43 41.488C172.214 42.704 170.718 43.312 168.942 43.312ZM166.278 39.712C166.998 40.432 167.886 40.792 168.942 40.792C169.998 40.792 170.886 40.432 171.606 39.712C172.326 38.992 172.686 38.088 172.686 37C172.686 35.912 172.326 35.008 171.606 34.288C170.886 33.568 169.998 33.208 168.942 33.208C167.886 33.208 166.998 33.568 166.278 34.288C165.558 35.008 165.198 35.912 165.198 37C165.198 38.088 165.558 38.992 166.278 39.712ZM184.413 30.688C186.061 30.688 187.469 31.304 188.637 32.536C189.805 33.752 190.389 35.24 190.389 37C190.389 38.776 189.805 40.272 188.637 41.488C187.469 42.704 186.061 43.312 184.413 43.312C182.589 43.312 181.189 42.64 180.213 41.296V47.8H177.621V31H180.213V32.728C181.189 31.368 182.589 30.688 184.413 30.688ZM181.293 39.76C182.013 40.48 182.917 40.84 184.005 40.84C185.093 40.84 185.997 40.48 186.717 39.76C187.437 39.024 187.797 38.104 187.797 37C187.797 35.896 187.437 34.984 186.717 34.264C185.997 33.528 185.093 33.16 184.005 33.16C182.917 33.16 182.013 33.528 181.293 34.264C180.573 34.984 180.213 35.896 180.213 37C180.213 38.104 180.573 39.024 181.293 39.76ZM201.427 31H203.419V43H200.875V35.368L194.731 43H192.739V31H195.283V38.608L201.427 31ZM213.17 36.856C214.45 37.432 215.09 38.384 215.09 39.712C215.09 40.736 214.674 41.592 213.842 42.28C213.01 42.968 211.85 43.312 210.362 43.312C207.946 43.312 206.314 42.352 205.466 40.432L207.578 39.184C208.01 40.384 208.946 40.984 210.386 40.984C211.058 40.984 211.586 40.848 211.97 40.576C212.354 40.288 212.546 39.912 212.546 39.448C212.546 39.032 212.394 38.704 212.09 38.464C211.786 38.208 211.362 38.08 210.818 38.08H209.114V35.8H210.386C210.914 35.8 211.322 35.68 211.61 35.44C211.914 35.184 212.066 34.84 212.066 34.408C212.066 33.992 211.898 33.656 211.562 33.4C211.226 33.128 210.778 32.992 210.218 32.992C209.018 32.992 208.186 33.52 207.722 34.576L205.61 33.376C206.506 31.584 208.026 30.688 210.17 30.688C211.514 30.688 212.578 31.032 213.362 31.72C214.162 32.392 214.562 33.216 214.562 34.192C214.562 35.392 214.098 36.28 213.17 36.856ZM226.711 31H229.303V43H226.711V41.272C225.735 42.632 224.335 43.312 222.511 43.312C220.863 43.312 219.455 42.704 218.287 41.488C217.119 40.256 216.535 38.76 216.535 37C216.535 35.224 217.119 33.728 218.287 32.512C219.455 31.296 220.863 30.688 222.511 30.688C224.335 30.688 225.735 31.36 226.711 32.704V31ZM220.207 39.76C220.927 40.48 221.831 40.84 222.919 40.84C224.007 40.84 224.911 40.48 225.631 39.76C226.351 39.024 226.711 38.104 226.711 37C226.711 35.896 226.351 34.984 225.631 34.264C224.911 33.528 224.007 33.16 222.919 33.16C221.831 33.16 220.927 33.528 220.207 34.264C219.487 34.984 219.127 35.896 219.127 37C219.127 38.104 219.487 39.024 220.207 39.76ZM242.645 40.552H244.613V46.216H242.069V43H232.325V31H234.917V40.552H240.053V31H242.645V40.552ZM255.403 31H257.395V43H254.851V35.368L248.707 43H246.715V31H249.259V38.608L255.403 31ZM269.091 31H271.083V43H268.539V35.368L262.395 43H260.403V31H262.947V38.608L269.091 31Z" fill="#44598D"/>
<path d="M39.224 80V78.656C39.96 78.7627 40.5093 78.56 40.872 78.048C41.2453 77.5253 41.432 76.56 41.432 75.152V68.8H48.824V80H47.336V70.208H42.92V75.152C42.92 76.1547 42.824 76.9973 42.632 77.68C42.4507 78.352 42.184 78.8587 41.832 79.2C41.4907 79.5413 41.1067 79.776 40.68 79.904C40.264 80.0213 39.7787 80.0533 39.224 80ZM57.8393 78.992C57.0179 79.8027 56.0206 80.208 54.8473 80.208C53.6739 80.208 52.6766 79.8027 51.8553 78.992C51.0446 78.1813 50.6393 77.184 50.6393 76C50.6393 74.816 51.0446 73.8187 51.8553 73.008C52.6766 72.1973 53.6739 71.792 54.8473 71.792C56.0206 71.792 57.0179 72.1973 57.8393 73.008C58.6606 73.8187 59.0712 74.816 59.0712 76C59.0712 77.184 58.6606 78.1813 57.8393 78.992ZM54.8473 78.848C55.6473 78.848 56.3193 78.576 56.8633 78.032C57.4073 77.488 57.6793 76.8107 57.6793 76C57.6793 75.1893 57.4073 74.512 56.8633 73.968C56.3193 73.424 55.6473 73.152 54.8473 73.152C54.0579 73.152 53.3913 73.424 52.8473 73.968C52.3033 74.512 52.0312 75.1893 52.0312 76C52.0312 76.8107 52.3033 77.488 52.8473 78.032C53.3913 78.576 54.0579 78.848 54.8473 78.848ZM65.9603 72V73.344H62.1043V80H60.7122V72H65.9603ZM72.989 72H74.109V80H72.733V74.384L68.301 80H67.181V72H68.557V77.616L72.989 72ZM81.7639 72H83.1559V80H81.7639V76.656H77.6199V80H76.2279V72H77.6199V75.328H81.7639V72ZM86.1548 73.888C85.8668 73.888 85.6214 73.7867 85.4188 73.584C85.2161 73.3813 85.1148 73.136 85.1148 72.848C85.1148 72.56 85.2161 72.3147 85.4188 72.112C85.6214 71.9093 85.8668 71.808 86.1548 71.808C86.4534 71.808 86.6988 71.9093 86.8908 72.112C87.0934 72.3147 87.1948 72.56 87.1948 72.848C87.1948 73.136 87.0934 73.3813 86.8908 73.584C86.6988 73.7867 86.4534 73.888 86.1548 73.888ZM86.1548 80.176C85.8668 80.176 85.6214 80.0747 85.4188 79.872C85.2161 79.6693 85.1148 79.424 85.1148 79.136C85.1148 78.848 85.2161 78.6027 85.4188 78.4C85.6214 78.1973 85.8668 78.096 86.1548 78.096C86.4534 78.096 86.6988 78.1973 86.8908 78.4C87.0934 78.6027 87.1948 78.848 87.1948 79.136C87.1948 79.424 87.0934 79.6693 86.8908 79.872C86.6988 80.0747 86.4534 80.176 86.1548 80.176Z" fill="#DBDBDB"/>
<path d="M39.224 80V78.656C39.96 78.7627 40.5093 78.56 40.872 78.048C41.2453 77.5253 41.432 76.56 41.432 75.152V68.8H48.824V80H47.336V70.208H42.92V75.152C42.92 76.1547 42.824 76.9973 42.632 77.68C42.4507 78.352 42.184 78.8587 41.832 79.2C41.4907 79.5413 41.1067 79.776 40.68 79.904C40.264 80.0213 39.7787 80.0533 39.224 80ZM57.8393 78.992C57.0179 79.8027 56.0206 80.208 54.8473 80.208C53.6739 80.208 52.6766 79.8027 51.8553 78.992C51.0446 78.1813 50.6393 77.184 50.6393 76C50.6393 74.816 51.0446 73.8187 51.8553 73.008C52.6766 72.1973 53.6739 71.792 54.8473 71.792C56.0206 71.792 57.0179 72.1973 57.8393 73.008C58.6606 73.8187 59.0712 74.816 59.0712 76C59.0712 77.184 58.6606 78.1813 57.8393 78.992ZM54.8473 78.848C55.6473 78.848 56.3193 78.576 56.8633 78.032C57.4073 77.488 57.6793 76.8107 57.6793 76C57.6793 75.1893 57.4073 74.512 56.8633 73.968C56.3193 73.424 55.6473 73.152 54.8473 73.152C54.0579 73.152 53.3913 73.424 52.8473 73.968C52.3033 74.512 52.0312 75.1893 52.0312 76C52.0312 76.8107 52.3033 77.488 52.8473 78.032C53.3913 78.576 54.0579 78.848 54.8473 78.848ZM65.9603 72V73.344H62.1043V80H60.7122V72H65.9603ZM72.989 72H74.109V80H72.733V74.384L68.301 80H67.181V72H68.557V77.616L72.989 72ZM81.7639 72H83.1559V80H81.7639V76.656H77.6199V80H76.2279V72H77.6199V75.328H81.7639V72ZM86.1548 73.888C85.8668 73.888 85.6214 73.7867 85.4188 73.584C85.2161 73.3813 85.1148 73.136 85.1148 72.848C85.1148 72.56 85.2161 72.3147 85.4188 72.112C85.6214 71.9093 85.8668 71.808 86.1548 71.808C86.4534 71.808 86.6988 71.9093 86.8908 72.112C87.0934 72.3147 87.1948 72.56 87.1948 72.848C87.1948 73.136 87.0934 73.3813 86.8908 73.584C86.6988 73.7867 86.4534 73.888 86.1548 73.888ZM86.1548 80.176C85.8668 80.176 85.6214 80.0747 85.4188 79.872C85.2161 79.6693 85.1148 79.424 85.1148 79.136C85.1148 78.848 85.2161 78.6027 85.4188 78.4C85.6214 78.1973 85.8668 78.096 86.1548 78.096C86.4534 78.096 86.6988 78.1973 86.8908 78.4C87.0934 78.6027 87.1948 78.848 87.1948 79.136C87.1948 79.424 87.0934 79.6693 86.8908 79.872C86.6988 80.0747 86.4534 80.176 86.1548 80.176Z" fill="#7B95B4"/>
<rect x="39" y="92" width="244" height="40" rx="8" fill="#F6EFFF"/>
<path d="M61.576 109.5H62.968V117.5H61.576V116.348C61.0107 117.255 60.1467 117.708 58.984 117.708C58.0453 117.708 57.2933 117.415 56.728 116.828C56.1627 116.231 55.88 115.425 55.88 114.412V109.5H57.272V114.332C57.272 114.983 57.448 115.489 57.8 115.852C58.152 116.204 58.6373 116.38 59.256 116.38C59.9493 116.38 60.5093 116.167 60.936 115.74C61.3627 115.303 61.576 114.636 61.576 113.74V109.5ZM66.2716 111.66C66.2716 111.969 66.4263 112.22 66.7356 112.412C67.045 112.593 67.4183 112.743 67.8556 112.86C68.293 112.967 68.7303 113.095 69.1676 113.244C69.605 113.383 69.9783 113.628 70.2876 113.98C70.597 114.321 70.7516 114.764 70.7516 115.308C70.7516 116.033 70.469 116.615 69.9036 117.052C69.349 117.489 68.6343 117.708 67.7596 117.708C66.981 117.708 66.3143 117.537 65.7596 117.196C65.205 116.855 64.8103 116.401 64.5756 115.836L65.7756 115.148C65.9036 115.532 66.1436 115.836 66.4956 116.06C66.8476 116.284 67.269 116.396 67.7596 116.396C68.2183 116.396 68.597 116.311 68.8956 116.14C69.1943 115.959 69.3436 115.681 69.3436 115.308C69.3436 114.999 69.189 114.753 68.8796 114.572C68.5703 114.38 68.197 114.231 67.7596 114.124C67.3223 114.007 66.885 113.873 66.4476 113.724C66.0103 113.575 65.637 113.329 65.3276 112.988C65.0183 112.647 64.8636 112.209 64.8636 111.676C64.8636 110.983 65.1303 110.412 65.6636 109.964C66.2076 109.516 66.885 109.292 67.6956 109.292C68.3463 109.292 68.9223 109.441 69.4236 109.74C69.9356 110.028 70.3196 110.433 70.5756 110.956L69.4076 111.612C69.1196 110.929 68.549 110.588 67.6956 110.588C67.301 110.588 66.965 110.684 66.6876 110.876C66.4103 111.057 66.2716 111.319 66.2716 111.66ZM73.157 114.14C73.2957 114.855 73.621 115.409 74.133 115.804C74.6557 116.199 75.2957 116.396 76.053 116.396C77.109 116.396 77.877 116.007 78.357 115.228L79.541 115.9C78.7623 117.105 77.589 117.708 76.021 117.708C74.7517 117.708 73.717 117.313 72.917 116.524C72.1277 115.724 71.733 114.716 71.733 113.5C71.733 112.295 72.1223 111.292 72.901 110.492C73.6797 109.692 74.6877 109.292 75.925 109.292C77.0983 109.292 78.053 109.708 78.789 110.54C79.5357 111.361 79.909 112.353 79.909 113.516C79.909 113.719 79.893 113.927 79.861 114.14H73.157ZM75.925 110.604C75.1783 110.604 74.5597 110.817 74.069 111.244C73.5783 111.66 73.2743 112.22 73.157 112.924H78.501C78.3837 112.167 78.085 111.591 77.605 111.196C77.125 110.801 76.565 110.604 75.925 110.604ZM82.9011 110.844C83.3598 109.852 84.1918 109.356 85.3971 109.356V110.812C84.7145 110.78 84.1278 110.961 83.6371 111.356C83.1465 111.751 82.9011 112.385 82.9011 113.26V117.5H81.5091V109.5H82.9011V110.844Z" fill="#DBDBDB"/>
<path d="M61.576 109.5H62.968V117.5H61.576V116.348C61.0107 117.255 60.1467 117.708 58.984 117.708C58.0453 117.708 57.2933 117.415 56.728 116.828C56.1627 116.231 55.88 115.425 55.88 114.412V109.5H57.272V114.332C57.272 114.983 57.448 115.489 57.8 115.852C58.152 116.204 58.6373 116.38 59.256 116.38C59.9493 116.38 60.5093 116.167 60.936 115.74C61.3627 115.303 61.576 114.636 61.576 113.74V109.5ZM66.2716 111.66C66.2716 111.969 66.4263 112.22 66.7356 112.412C67.045 112.593 67.4183 112.743 67.8556 112.86C68.293 112.967 68.7303 113.095 69.1676 113.244C69.605 113.383 69.9783 113.628 70.2876 113.98C70.597 114.321 70.7516 114.764 70.7516 115.308C70.7516 116.033 70.469 116.615 69.9036 117.052C69.349 117.489 68.6343 117.708 67.7596 117.708C66.981 117.708 66.3143 117.537 65.7596 117.196C65.205 116.855 64.8103 116.401 64.5756 115.836L65.7756 115.148C65.9036 115.532 66.1436 115.836 66.4956 116.06C66.8476 116.284 67.269 116.396 67.7596 116.396C68.2183 116.396 68.597 116.311 68.8956 116.14C69.1943 115.959 69.3436 115.681 69.3436 115.308C69.3436 114.999 69.189 114.753 68.8796 114.572C68.5703 114.38 68.197 114.231 67.7596 114.124C67.3223 114.007 66.885 113.873 66.4476 113.724C66.0103 113.575 65.637 113.329 65.3276 112.988C65.0183 112.647 64.8636 112.209 64.8636 111.676C64.8636 110.983 65.1303 110.412 65.6636 109.964C66.2076 109.516 66.885 109.292 67.6956 109.292C68.3463 109.292 68.9223 109.441 69.4236 109.74C69.9356 110.028 70.3196 110.433 70.5756 110.956L69.4076 111.612C69.1196 110.929 68.549 110.588 67.6956 110.588C67.301 110.588 66.965 110.684 66.6876 110.876C66.4103 111.057 66.2716 111.319 66.2716 111.66ZM73.157 114.14C73.2957 114.855 73.621 115.409 74.133 115.804C74.6557 116.199 75.2957 116.396 76.053 116.396C77.109 116.396 77.877 116.007 78.357 115.228L79.541 115.9C78.7623 117.105 77.589 117.708 76.021 117.708C74.7517 117.708 73.717 117.313 72.917 116.524C72.1277 115.724 71.733 114.716 71.733 113.5C71.733 112.295 72.1223 111.292 72.901 110.492C73.6797 109.692 74.6877 109.292 75.925 109.292C77.0983 109.292 78.053 109.708 78.789 110.54C79.5357 111.361 79.909 112.353 79.909 113.516C79.909 113.719 79.893 113.927 79.861 114.14H73.157ZM75.925 110.604C75.1783 110.604 74.5597 110.817 74.069 111.244C73.5783 111.66 73.2743 112.22 73.157 112.924H78.501C78.3837 112.167 78.085 111.591 77.605 111.196C77.125 110.801 76.565 110.604 75.925 110.604ZM82.9011 110.844C83.3598 109.852 84.1918 109.356 85.3971 109.356V110.812C84.7145 110.78 84.1278 110.961 83.6371 111.356C83.1465 111.751 82.9011 112.385 82.9011 113.26V117.5H81.5091V109.5H82.9011V110.844Z" fill="#4C4365"/>
<path d="M48.328 143.8V155H46.84V145.208H41.688V155H40.2V143.8H48.328ZM57.2113 147H58.6033V155H57.2113V153.624C56.5179 154.68 55.5099 155.208 54.1873 155.208C53.0673 155.208 52.1126 154.803 51.3233 153.992C50.5339 153.171 50.1393 152.173 50.1393 151C50.1393 149.827 50.5339 148.835 51.3233 148.024C52.1126 147.203 53.0673 146.792 54.1873 146.792C55.5099 146.792 56.5179 147.32 57.2113 148.376V147ZM54.3633 153.864C55.1739 153.864 55.8513 153.592 56.3953 153.048C56.9393 152.493 57.2113 151.811 57.2113 151C57.2113 150.189 56.9393 149.512 56.3953 148.968C55.8513 148.413 55.1739 148.136 54.3633 148.136C53.5633 148.136 52.8913 148.413 52.3473 148.968C51.8033 149.512 51.5312 150.189 51.5312 151C51.5312 151.811 51.8033 152.493 52.3473 153.048C52.8913 153.592 53.5633 153.864 54.3633 153.864ZM65.1283 146.792C66.2483 146.792 67.2029 147.203 67.9923 148.024C68.7816 148.835 69.1763 149.827 69.1763 151C69.1763 152.173 68.7816 153.171 67.9923 153.992C67.2029 154.803 66.2483 155.208 65.1283 155.208C63.8056 155.208 62.7976 154.68 62.1043 153.624V158.2H60.7122V147H62.1043V148.376C62.7976 147.32 63.8056 146.792 65.1283 146.792ZM64.9523 153.864C65.7523 153.864 66.4243 153.592 66.9683 153.048C67.5123 152.493 67.7843 151.811 67.7843 151C67.7843 150.189 67.5123 149.512 66.9683 148.968C66.4243 148.413 65.7523 148.136 64.9523 148.136C64.1416 148.136 63.4643 148.413 62.9203 148.968C62.3763 149.512 62.1043 150.189 62.1043 151C62.1043 151.811 62.3763 152.493 62.9203 153.048C63.4643 153.592 64.1416 153.864 64.9523 153.864ZM77.5893 153.992C76.7679 154.803 75.7706 155.208 74.5973 155.208C73.4239 155.208 72.4266 154.803 71.6053 153.992C70.7946 153.181 70.3893 152.184 70.3893 151C70.3893 149.816 70.7946 148.819 71.6053 148.008C72.4266 147.197 73.4239 146.792 74.5973 146.792C75.7706 146.792 76.7679 147.197 77.5893 148.008C78.4106 148.819 78.8212 149.816 78.8212 151C78.8212 152.184 78.4106 153.181 77.5893 153.992ZM74.5973 153.848C75.3973 153.848 76.0693 153.576 76.6133 153.032C77.1573 152.488 77.4293 151.811 77.4293 151C77.4293 150.189 77.1573 149.512 76.6133 148.968C76.0693 148.424 75.3973 148.152 74.5973 148.152C73.8079 148.152 73.1413 148.424 72.5973 148.968C72.0533 149.512 71.7812 150.189 71.7812 151C71.7812 151.811 72.0533 152.488 72.5973 153.032C73.1413 153.576 73.8079 153.848 74.5973 153.848ZM86.853 147V155H85.461V148.344H82.309V151.608C82.309 152.92 82.0423 153.837 81.509 154.36C80.9863 154.872 80.245 155.085 79.285 155V153.688C79.829 153.763 80.2343 153.645 80.501 153.336C80.7783 153.016 80.917 152.429 80.917 151.576V147H86.853ZM92.3383 149.88C93.1383 149.88 93.7996 150.12 94.3223 150.6C94.8556 151.069 95.1223 151.683 95.1223 152.44C95.1223 153.197 94.8556 153.816 94.3223 154.296C93.7996 154.765 93.1383 155 92.3383 155H88.9622V147H90.3543V149.88H92.3383ZM92.3383 153.704C92.7329 153.704 93.0636 153.592 93.3303 153.368C93.6076 153.133 93.7463 152.824 93.7463 152.44C93.7463 152.056 93.6076 151.747 93.3303 151.512C93.0636 151.277 92.7329 151.16 92.3383 151.16H90.3543V153.704H92.3383ZM97.4985 148.888C97.2105 148.888 96.9652 148.787 96.7625 148.584C96.5598 148.381 96.4585 148.136 96.4585 147.848C96.4585 147.56 96.5598 147.315 96.7625 147.112C96.9652 146.909 97.2105 146.808 97.4985 146.808C97.7972 146.808 98.0425 146.909 98.2345 147.112C98.4372 147.315 98.5385 147.56 98.5385 147.848C98.5385 148.136 98.4372 148.381 98.2345 148.584C98.0425 148.787 97.7972 148.888 97.4985 148.888ZM97.4985 155.176C97.2105 155.176 96.9652 155.075 96.7625 154.872C96.5598 154.669 96.4585 154.424 96.4585 154.136C96.4585 153.848 96.5598 153.603 96.7625 153.4C96.9652 153.197 97.2105 153.096 97.4985 153.096C97.7972 153.096 98.0425 153.197 98.2345 153.4C98.4372 153.603 98.5385 153.848 98.5385 154.136C98.5385 154.424 98.4372 154.669 98.2345 154.872C98.0425 155.075 97.7972 155.176 97.4985 155.176Z" fill="#DBDBDB"/>
<path d="M48.328 143.8V155H46.84V145.208H41.688V155H40.2V143.8H48.328ZM57.2113 147H58.6033V155H57.2113V153.624C56.5179 154.68 55.5099 155.208 54.1873 155.208C53.0673 155.208 52.1126 154.803 51.3233 153.992C50.5339 153.171 50.1393 152.173 50.1393 151C50.1393 149.827 50.5339 148.835 51.3233 148.024C52.1126 147.203 53.0673 146.792 54.1873 146.792C55.5099 146.792 56.5179 147.32 57.2113 148.376V147ZM54.3633 153.864C55.1739 153.864 55.8513 153.592 56.3953 153.048C56.9393 152.493 57.2113 151.811 57.2113 151C57.2113 150.189 56.9393 149.512 56.3953 148.968C55.8513 148.413 55.1739 148.136 54.3633 148.136C53.5633 148.136 52.8913 148.413 52.3473 148.968C51.8033 149.512 51.5312 150.189 51.5312 151C51.5312 151.811 51.8033 152.493 52.3473 153.048C52.8913 153.592 53.5633 153.864 54.3633 153.864ZM65.1283 146.792C66.2483 146.792 67.2029 147.203 67.9923 148.024C68.7816 148.835 69.1763 149.827 69.1763 151C69.1763 152.173 68.7816 153.171 67.9923 153.992C67.2029 154.803 66.2483 155.208 65.1283 155.208C63.8056 155.208 62.7976 154.68 62.1043 153.624V158.2H60.7122V147H62.1043V148.376C62.7976 147.32 63.8056 146.792 65.1283 146.792ZM64.9523 153.864C65.7523 153.864 66.4243 153.592 66.9683 153.048C67.5123 152.493 67.7843 151.811 67.7843 151C67.7843 150.189 67.5123 149.512 66.9683 148.968C66.4243 148.413 65.7523 148.136 64.9523 148.136C64.1416 148.136 63.4643 148.413 62.9203 148.968C62.3763 149.512 62.1043 150.189 62.1043 151C62.1043 151.811 62.3763 152.493 62.9203 153.048C63.4643 153.592 64.1416 153.864 64.9523 153.864ZM77.5893 153.992C76.7679 154.803 75.7706 155.208 74.5973 155.208C73.4239 155.208 72.4266 154.803 71.6053 153.992C70.7946 153.181 70.3893 152.184 70.3893 151C70.3893 149.816 70.7946 148.819 71.6053 148.008C72.4266 147.197 73.4239 146.792 74.5973 146.792C75.7706 146.792 76.7679 147.197 77.5893 148.008C78.4106 148.819 78.8212 149.816 78.8212 151C78.8212 152.184 78.4106 153.181 77.5893 153.992ZM74.5973 153.848C75.3973 153.848 76.0693 153.576 76.6133 153.032C77.1573 152.488 77.4293 151.811 77.4293 151C77.4293 150.189 77.1573 149.512 76.6133 148.968C76.0693 148.424 75.3973 148.152 74.5973 148.152C73.8079 148.152 73.1413 148.424 72.5973 148.968C72.0533 149.512 71.7812 150.189 71.7812 151C71.7812 151.811 72.0533 152.488 72.5973 153.032C73.1413 153.576 73.8079 153.848 74.5973 153.848ZM86.853 147V155H85.461V148.344H82.309V151.608C82.309 152.92 82.0423 153.837 81.509 154.36C80.9863 154.872 80.245 155.085 79.285 155V153.688C79.829 153.763 80.2343 153.645 80.501 153.336C80.7783 153.016 80.917 152.429 80.917 151.576V147H86.853ZM92.3383 149.88C93.1383 149.88 93.7996 150.12 94.3223 150.6C94.8556 151.069 95.1223 151.683 95.1223 152.44C95.1223 153.197 94.8556 153.816 94.3223 154.296C93.7996 154.765 93.1383 155 92.3383 155H88.9622V147H90.3543V149.88H92.3383ZM92.3383 153.704C92.7329 153.704 93.0636 153.592 93.3303 153.368C93.6076 153.133 93.7463 152.824 93.7463 152.44C93.7463 152.056 93.6076 151.747 93.3303 151.512C93.0636 151.277 92.7329 151.16 92.3383 151.16H90.3543V153.704H92.3383ZM97.4985 148.888C97.2105 148.888 96.9652 148.787 96.7625 148.584C96.5598 148.381 96.4585 148.136 96.4585 147.848C96.4585 147.56 96.5598 147.315 96.7625 147.112C96.9652 146.909 97.2105 146.808 97.4985 146.808C97.7972 146.808 98.0425 146.909 98.2345 147.112C98.4372 147.315 98.5385 147.56 98.5385 147.848C98.5385 148.136 98.4372 148.381 98.2345 148.584C98.0425 148.787 97.7972 148.888 97.4985 148.888ZM97.4985 155.176C97.2105 155.176 96.9652 155.075 96.7625 154.872C96.5598 154.669 96.4585 154.424 96.4585 154.136C96.4585 153.848 96.5598 153.603 96.7625 153.4C96.9652 153.197 97.2105 153.096 97.4985 153.096C97.7972 153.096 98.0425 153.197 98.2345 153.4C98.4372 153.603 98.5385 153.848 98.5385 154.136C98.5385 154.424 98.4372 154.669 98.2345 154.872C98.0425 155.075 97.7972 155.176 97.4985 155.176Z" fill="#7B95B4"/>
<rect x="39" y="167" width="244" height="40" rx="8" fill="#F6EFFF"/>
<path d="M58.168 181.3H59.448V192.5H57.976V182.9L55.592 183.604L55.224 182.324L58.168 181.3ZM61.2791 192.5V191.284L65.2311 187.252C66.2871 186.196 66.8151 185.289 66.8151 184.532C66.8151 183.903 66.6231 183.412 66.2391 183.06C65.8551 182.708 65.3858 182.532 64.8311 182.532C63.7751 182.532 63.0071 183.033 62.5271 184.036L61.2791 183.3C61.6311 182.575 62.1165 182.025 62.7351 181.652C63.3645 181.279 64.0578 181.092 64.8151 181.092C65.7538 181.092 66.5698 181.401 67.2631 182.02C67.9565 182.639 68.3031 183.471 68.3031 184.516C68.3031 185.647 67.6365 186.879 66.3031 188.212L63.4391 191.06H68.5111V192.5H61.2791ZM74.0404 185.892C74.8937 186.052 75.5924 186.42 76.1364 186.996C76.6804 187.572 76.9524 188.303 76.9524 189.188C76.9524 190.276 76.579 191.135 75.8324 191.764C75.0857 192.393 74.179 192.708 73.1124 192.708C72.259 192.708 71.5017 192.516 70.8404 192.132C70.179 191.737 69.7097 191.172 69.4324 190.436L70.6804 189.7C71.011 190.735 71.8217 191.252 73.1124 191.252C73.8057 191.252 74.371 191.071 74.8084 190.708C75.2457 190.345 75.4644 189.839 75.4644 189.188C75.4644 188.537 75.2457 188.031 74.8084 187.668C74.371 187.295 73.8057 187.108 73.1124 187.108H72.7284L72.1364 186.196L74.7284 182.692H69.7524V181.3H76.4724V182.612L74.0404 185.892Z" fill="#DBDBDB"/>
<path d="M58.168 181.3H59.448V192.5H57.976V182.9L55.592 183.604L55.224 182.324L58.168 181.3ZM61.2791 192.5V191.284L65.2311 187.252C66.2871 186.196 66.8151 185.289 66.8151 184.532C66.8151 183.903 66.6231 183.412 66.2391 183.06C65.8551 182.708 65.3858 182.532 64.8311 182.532C63.7751 182.532 63.0071 183.033 62.5271 184.036L61.2791 183.3C61.6311 182.575 62.1165 182.025 62.7351 181.652C63.3645 181.279 64.0578 181.092 64.8151 181.092C65.7538 181.092 66.5698 181.401 67.2631 182.02C67.9565 182.639 68.3031 183.471 68.3031 184.516C68.3031 185.647 67.6365 186.879 66.3031 188.212L63.4391 191.06H68.5111V192.5H61.2791ZM74.0404 185.892C74.8937 186.052 75.5924 186.42 76.1364 186.996C76.6804 187.572 76.9524 188.303 76.9524 189.188C76.9524 190.276 76.579 191.135 75.8324 191.764C75.0857 192.393 74.179 192.708 73.1124 192.708C72.259 192.708 71.5017 192.516 70.8404 192.132C70.179 191.737 69.7097 191.172 69.4324 190.436L70.6804 189.7C71.011 190.735 71.8217 191.252 73.1124 191.252C73.8057 191.252 74.371 191.071 74.8084 190.708C75.2457 190.345 75.4644 189.839 75.4644 189.188C75.4644 188.537 75.2457 188.031 74.8084 187.668C74.371 187.295 73.8057 187.108 73.1124 187.108H72.7284L72.1364 186.196L74.7284 182.692H69.7524V181.3H76.4724V182.612L74.0404 185.892Z" fill="#4C4365"/>
</g>
<defs>
<filter id="filter0_dddd_53289_10158" x="0" y="0" width="322" height="304" filterUnits="userSpaceOnUse" color-interpolation-filters="sRGB">
<feFlood flood-opacity="0" result="BackgroundImageFix"/>
<feColorMatrix in="SourceAlpha" type="matrix" values="0 0 0 0 0 0 0 0 0 0 0 0 0 0 0 0 0 0 127 0" result="hardAlpha"/>
<feOffset dy="4"/>
<feGaussianBlur stdDeviation="4"/>
<feColorMatrix type="matrix" values="0 0 0 0 0.788235 0 0 0 0 0.756863 0 0 0 0 0.941176 0 0 0 0.1 0"/>
<feBlend mode="normal" in2="BackgroundImageFix" result="effect1_dropShadow_53289_10158"/>
<feColorMatrix in="SourceAlpha" type="matrix" values="0 0 0 0 0 0 0 0 0 0 0 0 0 0 0 0 0 0 127 0" result="hardAlpha"/>
<feOffset dy="14"/>
<feGaussianBlur stdDeviation="7"/>
<feColorMatrix type="matrix" values="0 0 0 0 0.788235 0 0 0 0 0.756863 0 0 0 0 0.941176 0 0 0 0.09 0"/>
<feBlend mode="normal" in2="effect1_dropShadow_53289_10158" result="effect2_dropShadow_53289_10158"/>
<feColorMatrix in="SourceAlpha" type="matrix" values="0 0 0 0 0 0 0 0 0 0 0 0 0 0 0 0 0 0 127 0" result="hardAlpha"/>
<feOffset dy="32"/>
<feGaussianBlur stdDeviation="9.5"/>
<feColorMatrix type="matrix" values="0 0 0 0 0.788235 0 0 0 0 0.756863 0 0 0 0 0.941176 0 0 0 0.05 0"/>
<feBlend mode="normal" in2="effect2_dropShadow_53289_10158" result="effect3_dropShadow_53289_10158"/>
<feColorMatrix in="SourceAlpha" type="matrix" values="0 0 0 0 0 0 0 0 0 0 0 0 0 0 0 0 0 0 127 0" result="hardAlpha"/>
<feOffset dy="58"/>
<feGaussianBlur stdDeviation="11.5"/>
<feColorMatrix type="matrix" values="0 0 0 0 0.788235 0 0 0 0 0.756863 0 0 0 0 0.941176 0 0 0 0.01 0"/>
<feBlend mode="normal" in2="effect3_dropShadow_53289_10158" result="effect4_dropShadow_53289_10158"/>
<feBlend mode="normal" in="SourceGraphic" in2="effect4_dropShadow_53289_10158" result="shape"/>
</filter>
</defs>
</svg>
