<svg width="147" height="125" viewBox="0 0 147 125" fill="none" xmlns="http://www.w3.org/2000/svg">
<g filter="url(#filter0_dddd_53289_10152)">
<rect x="23" y="4" width="101" height="40" rx="10" fill="white"/>
<path d="M51.1635 26.0442C50.5507 26.5383 49.7873 26.8077 49.0002 26.8077C48.213 26.8077 47.4496 26.5383 46.8368 26.0442C46.6496 25.8886 46.4083 25.8138 46.1659 25.8361C45.9235 25.8585 45.6999 25.9762 45.5443 26.1634C45.3887 26.3506 45.3139 26.5919 45.3362 26.8343C45.3586 27.0767 45.4763 27.3003 45.6635 27.4559C46.5997 28.2374 47.7806 28.6655 49.0002 28.6655C50.2197 28.6655 51.4006 28.2374 52.3368 27.4559C52.524 27.3003 52.6418 27.0767 52.6641 26.8343C52.6865 26.5919 52.6116 26.3506 52.456 26.1634C52.379 26.0707 52.2844 25.9941 52.1778 25.9379C52.0711 25.8818 51.9544 25.8472 51.8344 25.8361C51.592 25.8138 51.3507 25.8886 51.1635 26.0442ZM46.2502 23.0834C46.4315 23.0834 46.6087 23.0296 46.7594 22.9289C46.9102 22.8282 47.0277 22.685 47.0971 22.5175C47.1664 22.35 47.1846 22.1657 47.1492 21.9879C47.1138 21.8101 47.0265 21.6467 46.8983 21.5185C46.7701 21.3903 46.6068 21.303 46.429 21.2677C46.2512 21.2323 46.0669 21.2504 45.8994 21.3198C45.7319 21.3892 45.5887 21.5067 45.488 21.6574C45.3873 21.8082 45.3335 21.9854 45.3335 22.1667C45.3335 22.4098 45.4301 22.643 45.602 22.8149C45.7739 22.9868 46.0071 23.0834 46.2502 23.0834ZM51.7502 21.25C51.5689 21.25 51.3916 21.3038 51.2409 21.4045C51.0901 21.5053 50.9727 21.6484 50.9033 21.8159C50.8339 21.9834 50.8157 22.1677 50.8511 22.3455C50.8865 22.5234 50.9738 22.6867 51.102 22.8149C51.2302 22.9431 51.3935 23.0304 51.5713 23.0658C51.7491 23.1011 51.9335 23.083 52.101 23.0136C52.2685 22.9442 52.4116 22.8267 52.5123 22.676C52.6131 22.5252 52.6668 22.348 52.6668 22.1667C52.6668 21.9236 52.5703 21.6904 52.3983 21.5185C52.2264 21.3466 51.9933 21.25 51.7502 21.25ZM49.0002 14.8334C47.1872 14.8334 45.4149 15.371 43.9074 16.3782C42.4 17.3855 41.2251 18.8171 40.5313 20.4921C39.8375 22.1671 39.6559 24.0102 40.0096 25.7884C40.3633 27.5665 41.2364 29.1999 42.5184 30.4819C43.8003 31.7638 45.4337 32.6369 47.2118 32.9906C48.99 33.3443 50.8331 33.1627 52.5081 32.4689C54.1831 31.7751 55.6147 30.6002 56.622 29.0928C57.6292 27.5853 58.1668 25.813 58.1668 24C58.1668 22.7963 57.9297 21.6043 57.4691 20.4921C57.0084 19.38 56.3332 18.3694 55.482 17.5182C54.6308 16.667 53.6202 15.9918 52.5081 15.5311C51.3959 15.0705 50.204 14.8334 49.0002 14.8334ZM49.0002 31.3334C47.5498 31.3334 46.1319 30.9033 44.926 30.0975C43.72 29.2917 42.7801 28.1464 42.2251 26.8064C41.67 25.4664 41.5248 23.9919 41.8077 22.5694C42.0907 21.1469 42.7891 19.8402 43.8147 18.8146C44.8403 17.789 46.147 17.0906 47.5695 16.8076C48.992 16.5247 50.4665 16.6699 51.8065 17.2249C53.1465 17.78 54.2918 18.7199 55.0976 19.9259C55.9034 21.1318 56.3335 22.5496 56.3335 24C56.3335 25.945 55.5609 27.8102 54.1856 29.1855C52.8103 30.5608 50.9451 31.3334 49.0002 31.3334Z" fill="#44598D"/>
<path d="M71.6 23.192C72.112 23.4373 72.5173 23.7893 72.816 24.248C73.1253 24.7067 73.28 25.2347 73.28 25.832C73.28 26.728 72.9653 27.48 72.336 28.088C71.7067 28.696 70.9387 29 70.032 29H65.2V17.8H69.68C70.5547 17.8 71.296 18.0933 71.904 18.68C72.512 19.2667 72.816 19.992 72.816 20.856C72.816 21.848 72.4107 22.6267 71.6 23.192ZM69.68 19.192H66.688V22.616H69.68C70.1493 22.616 70.544 22.4507 70.864 22.12C71.184 21.7893 71.344 21.384 71.344 20.904C71.344 20.4347 71.1787 20.0347 70.848 19.704C70.528 19.3627 70.1387 19.192 69.68 19.192ZM70.032 27.608C70.5333 27.608 70.9547 27.432 71.296 27.08C71.6373 26.728 71.808 26.296 71.808 25.784C71.808 25.2827 71.632 24.856 71.28 24.504C70.9387 24.152 70.5227 23.976 70.032 23.976H66.688V27.608H70.032ZM81.6986 27.992C80.8773 28.8027 79.88 29.208 78.7066 29.208C77.5333 29.208 76.536 28.8027 75.7146 27.992C74.904 27.1813 74.4986 26.184 74.4986 25C74.4986 23.816 74.904 22.8187 75.7146 22.008C76.536 21.1973 77.5333 20.792 78.7066 20.792C79.88 20.792 80.8773 21.1973 81.6986 22.008C82.52 22.8187 82.9306 23.816 82.9306 25C82.9306 26.184 82.52 27.1813 81.6986 27.992ZM78.7066 27.848C79.5066 27.848 80.1786 27.576 80.7226 27.032C81.2666 26.488 81.5386 25.8107 81.5386 25C81.5386 24.1893 81.2666 23.512 80.7226 22.968C80.1786 22.424 79.5066 22.152 78.7066 22.152C77.9173 22.152 77.2506 22.424 76.7066 22.968C76.1626 23.512 75.8906 24.1893 75.8906 25C75.8906 25.8107 76.1626 26.488 76.7066 27.032C77.2506 27.576 77.9173 27.848 78.7066 27.848ZM85.8836 19.8V18.584H90.2036V19.8H85.8836ZM90.3796 21H91.4996V29H90.1236V23.384L85.6916 29H84.5716V21H85.9476V26.616L90.3796 21ZM99.5705 21V22.344H96.8505V29H95.4585V22.344H92.7225V21H99.5705ZM106.598 21H107.718V29H106.342V23.384L101.91 29H100.79V21H102.166V26.616L106.598 21Z" fill="#44598D"/>
</g>
<defs>
<filter id="filter0_dddd_53289_10152" x="0" y="0" width="147" height="125" filterUnits="userSpaceOnUse" color-interpolation-filters="sRGB">
<feFlood flood-opacity="0" result="BackgroundImageFix"/>
<feColorMatrix in="SourceAlpha" type="matrix" values="0 0 0 0 0 0 0 0 0 0 0 0 0 0 0 0 0 0 127 0" result="hardAlpha"/>
<feOffset dy="4"/>
<feGaussianBlur stdDeviation="4"/>
<feColorMatrix type="matrix" values="0 0 0 0 0.788235 0 0 0 0 0.756863 0 0 0 0 0.941176 0 0 0 0.1 0"/>
<feBlend mode="normal" in2="BackgroundImageFix" result="effect1_dropShadow_53289_10152"/>
<feColorMatrix in="SourceAlpha" type="matrix" values="0 0 0 0 0 0 0 0 0 0 0 0 0 0 0 0 0 0 127 0" result="hardAlpha"/>
<feOffset dy="14"/>
<feGaussianBlur stdDeviation="7"/>
<feColorMatrix type="matrix" values="0 0 0 0 0.788235 0 0 0 0 0.756863 0 0 0 0 0.941176 0 0 0 0.09 0"/>
<feBlend mode="normal" in2="effect1_dropShadow_53289_10152" result="effect2_dropShadow_53289_10152"/>
<feColorMatrix in="SourceAlpha" type="matrix" values="0 0 0 0 0 0 0 0 0 0 0 0 0 0 0 0 0 0 127 0" result="hardAlpha"/>
<feOffset dy="32"/>
<feGaussianBlur stdDeviation="9.5"/>
<feColorMatrix type="matrix" values="0 0 0 0 0.788235 0 0 0 0 0.756863 0 0 0 0 0.941176 0 0 0 0.05 0"/>
<feBlend mode="normal" in2="effect2_dropShadow_53289_10152" result="effect3_dropShadow_53289_10152"/>
<feColorMatrix in="SourceAlpha" type="matrix" values="0 0 0 0 0 0 0 0 0 0 0 0 0 0 0 0 0 0 127 0" result="hardAlpha"/>
<feOffset dy="58"/>
<feGaussianBlur stdDeviation="11.5"/>
<feColorMatrix type="matrix" values="0 0 0 0 0.788235 0 0 0 0 0.756863 0 0 0 0 0.941176 0 0 0 0.01 0"/>
<feBlend mode="normal" in2="effect3_dropShadow_53289_10152" result="effect4_dropShadow_53289_10152"/>
<feBlend mode="normal" in="SourceGraphic" in2="effect4_dropShadow_53289_10152" result="shape"/>
</filter>
</defs>
</svg>
